<svg width="171" height="32" viewBox="0 0 171 32" fill="none" xmlns="http://www.w3.org/2000/svg">
  <path d="M17.1 8.6C17.3 8.5 17.6 8.4 17.8 8.2L21.6 5.7C21.8 5.6 21.9 5.4 22.1 5.2C22.3 5 22.4 4.8 22.5 4.5C22.6 4.2 22.6 4 22.7 3.7C22.7 3.4 22.7 3.2 22.6 2.9C22.5 2.6 22.4 2.4 22.3 2.2C22.1 2 21.9 1.8 21.7 1.6C21.5 1.5 21.3 1.4 21 1.3C20.7 1.2 20.5 1.2 20.2 1.2C20 1.2 19.7 1.3 19.4 1.3C19.1 1.4 18.9 1.5 18.7 1.7C18.5 1.8 18.3 2 18.1 2.2L14.3 4.8C14.1 4.9 13.9 5.1 13.8 5.3C13.6 5.5 13.5 5.7 13.5 6C13.4 6.3 13.4 6.5 13.5 6.8C13.5 7.1 13.6 7.3 13.8 7.6C13.9 7.8 14.1 8 14.3 8.1C14.5 8.3 14.7 8.4 14.9 8.5C15.1 8.6 15.4 8.7 15.7 8.7C16 8.7 16.2 8.7 16.5 8.6C16.7 8.7 17 8.7 17.1 8.6Z" fill="#1B314F"/>
  <path d="M25.9 9.9C25.8 9.7 25.6 9.5 25.4 9.3C25.2 9.1 25 9 24.7 8.9C24.4 8.8 24.2 8.7 23.9 8.7C23.6 8.7 23.4 8.7 23.1 8.8C22.9 8.9 22.6 9 22.4 9.2C22.2 9.3 22 9.5 21.8 9.7L17.2 12.9L16.8 13.2C16.8 13.2 16.8 13.2 16.7 13.3C16.7 13.3 16.7 13.3 16.6 13.3C16.6 13.3 16.6 13.3 16.5 13.3C16.5 13.3 16.5 13.3 16.4 13.3C16.4 13.3 16.4 13.3 16.3 13.3C16.3 13.3 16.3 13.3 16.2 13.3C16.2 13.3 16.2 13.3 16.1 13.3C16 13.3 16 13.3 15.9 13.3C15.8 13.3 15.8 13.3 15.7 13.3C15.7 13.3 15.7 13.3 15.6 13.3C15.6 13.3 15.6 13.3 15.5 13.3C15.5 13.3 15.5 13.3 15.4 13.3C15.4 13.3 15.4 13.3 15.3 13.3C15.3 13.3 15.3 13.3 15.2 13.2C15.2 13.2 15.2 13.2 15.1 13.2L14.7 12.9L10.1 9.7C9.9 9.5 9.7 9.4 9.5 9.2C9.3 9.1 9.1 9 8.8 8.8C8.5 8.8 8.3 8.7 8 8.7C7.7 8.7 7.5 8.8 7.2 8.9C7 9 6.7 9.1 6.5 9.3C6.3 9.5 6.1 9.7 6 9.9C5.9 10.1 5.8 10.4 5.7 10.6C5.6 10.9 5.6 11.1 5.7 11.4C5.7 11.7 5.8 11.9 6 12.1C6.1 12.3 6.3 12.5 6.5 12.7L12.7 17C12.7 17 12.7 17 12.8 17C12.8 17 12.8 17 12.9 17.1C12.9 17.1 12.9 17.1 13 17.1C13 17.1 13 17.1 13.1 17.1C13.1 17.1 13.1 17.1 13.2 17.1C13.2 17.1 13.2 17.1 13.3 17.1C13.3 17.1 13.3 17.1 13.4 17.1C13.4 17.1 13.4 17.1 13.5 17.1C13.5 17.1 13.5 17.1 13.6 17.1C13.6 17.1 13.6 17.1 13.7 17.1C13.8 17.1 13.8 17.1 13.9 17.1C14 17.1 14 17.1 14.1 17.1C14.1 17.1 14.1 17.1 14.2 17.1C14.2 17.1 14.2 17.1 14.3 17.1C14.3 17.1 14.3 17.1 14.4 17.1C14.4 17.1 14.4 17.1 14.5 17.1C14.5 17.1 14.5 17.1 14.6 17.1C14.6 17.1 14.6 17.1 14.7 17.1C14.7 17.1 14.7 17 14.8 17C14.8 17 14.8 17 14.9 17L21.3 12.7C21.5 12.5 21.7 12.4 21.8 12.1C22 11.9 22.1 11.7 22.1 11.4C22.2 11.1 22.2 10.9 22.1 10.6C22.1 10.4 22 10.1 25.9 9.9Z" fill="#1B314F"/>
  <path d="M15.9 20.6C15.8 20.6 15.8 20.6 15.7 20.6C15.6 20.6 15.6 20.6 15.5 20.6C15.5 20.6 15.5 20.6 15.4 20.6C15.4 20.6 15.4 20.6 15.3 20.6C15.3 20.6 15.3 20.6 15.2 20.6C15.2 20.6 15.2 20.6 15.1 20.6C15.1 20.6 15.1 20.6 15 20.5C15 20.5 15 20.5 14.9 20.5L6.6 14.8C6.4 14.6 6.2 14.5 6 14.3C5.8 14.1 5.7 13.9 5.6 13.6C5.5 13.3 5.5 13.1 5.6 12.8C5.6 12.5 5.7 12.3 5.9 12.1C6 11.9 6.2 11.7 6.4 11.5C6.6 11.3 6.8 11.2 7.1 11.1C7.4 11 7.6 11 7.9 11C8.2 11 8.4 11.1 8.7 11.2C8.9 11.3 9.1 11.4 9.3 11.6L15.9 15.9L22.5 11.6C22.7 11.4 22.9 11.3 23.2 11.2C23.4 11.1 23.7 11 24 11C24.3 11 24.5 11 24.8 11.1C25.1 11.2 25.3 11.3 25.5 11.5C25.7 11.7 25.9 11.9 26 12.1C26.2 12.3 26.3 12.5 26.3 12.8C26.4 13.1 26.4 13.3 26.3 13.6C26.2 13.9 26.1 14.1 25.9 14.3C25.7 14.5 25.5 14.6 25.3 14.8L17 20.5C17 20.5 17 20.5 16.9 20.5C16.9 20.5 16.9 20.5 16.8 20.6C16.8 20.6 16.8 20.6 16.7 20.6C16.7 20.6 16.7 20.6 16.6 20.6C16.6 20.6 16.6 20.6 16.5 20.6C16.5 20.6 16.5 20.6 16.4 20.6C16.4 20.6 16.4 20.6 16.3 20.6C16.3 20.6 16.3 20.6 16.2 20.6C16.1 20.6 16 20.6 15.9 20.6Z" fill="#1B314F"/>
  <path d="M16 26.2C15.7 26.2 15.5 26.1 15.2 26.1C15 26 14.7 25.9 14.5 25.8C14.3 25.6 14.1 25.5 13.9 25.2L6.6 19.9C6.4 19.7 6.2 19.6 6 19.4C5.8 19.2 5.7 19 5.6 18.7C5.5 18.4 5.5 18.2 5.5 17.9C5.5 17.6 5.7 17.4 5.8 17.2C6 17 6.2 16.8 6.4 16.6C6.6 16.4 6.9 16.3 7.1 16.2C7.4 16.1 7.6 16.1 7.9 16.1C8.2 16.1 8.4 16.1 8.7 16.2C8.9 16.3 9.1 16.4 9.3 16.6L15.9 20.9L22.7 16.6C22.9 16.4 23.1 16.3 23.3 16.2C23.6 16.1 23.8 16.1 24.1 16.1C24.4 16.1 24.6 16.1 24.9 16.2C25.1 16.3 25.4 16.4 25.6 16.6C25.8 16.8 26 16.9 26.1 17.1C26.3 17.3 26.4 17.6 26.4 17.9C26.5 18.2 26.5 18.4 26.4 18.7C26.3 19 26.2 19.2 26 19.4C25.8 19.6 25.6 19.8 25.4 19.9L18.2 25.2C18 25.4 17.8 25.6 17.5 25.7C17.3 25.9 17.1 26 16.8 26.1C16.5 26.2 16.3 26.2 16 26.2Z" fill="#1B314F"/>
  <path d="M16.3 31C16 31 15.8 31 15.5 30.9C15.2 30.8 15 30.7 14.8 30.5C14.6 30.4 14.4 30.2 14.2 30L6.6 24.5C6.4 24.3 6.2 24.2 6 24C5.8 23.8 5.7 23.6 5.6 23.3C5.5 23 5.5 22.8 5.5 22.5C5.5 22.2 5.7 22 5.8 21.8C6 21.6 6.2 21.4 6.4 21.2C6.6 21 6.9 20.9 7.1 20.8C7.4 20.7 7.6 20.7 7.9 20.7C8.2 20.7 8.4 20.7 8.7 20.8C8.9 20.9 9.1 21 9.3 21.2L15.9 25.5L22.7 21.2C22.9 21 23.1 20.9 23.3 20.8C23.6 20.7 23.8 20.7 24.1 20.7C24.4 20.7 24.6 20.7 24.9 20.8C25.1 20.9 25.4 21 25.6 21.2C25.8 21.4 26 21.5 26.1 21.7C26.3 21.9 26.4 22.2 26.4 22.5C26.5 22.8 26.5 23 26.4 23.3C26.3 23.6 26.2 23.8 26 24C25.8 24.2 25.6 24.4 25.4 24.5L18 29.8C17.8 30 17.6 30.2 17.3 30.4C17.1 30.5 16.9 30.7 16.6 30.8C16.5 31 16.4 31 16.3 31Z" fill="#1B314F"/>
  <path d="M45.3 14.3H47.4V19.5C46.9 19.9 46.3 20.2 45.7 20.4C45.1 20.6 44.4 20.7 43.8 20.7C42.8 20.7 41.9 20.5 41.1 20.1C40.3 19.7 39.6 19.1 39.1 18.3C38.6 17.5 38.4 16.7 38.4 15.7C38.4 14.8 38.6 13.9 39.1 13.1C39.6 12.3 40.3 11.7 41.1 11.3C41.9 10.9 42.9 10.7 43.9 10.7C44.6 10.7 45.3 10.8 45.9 11C46.5 11.2 47.1 11.5 47.5 12L46.5 13.5C45.8 12.9 44.9 12.7 44 12.7C43.4 12.7 42.8 12.8 42.3 13C41.8 13.2 41.4 13.6 41.1 14.1C40.8 14.6 40.6 15.1 40.6 15.7C40.6 16.3 40.8 16.9 41.1 17.3C41.4 17.8 41.8 18.1 42.3 18.3C42.8 18.5 43.4 18.7 44 18.7C44.6 18.7 45.1 18.6 45.6 18.3L45.3 14.3Z" fill="#1B314F"/>
  <path d="M51.8 14.2V15.8H49V14.2H51.8Z" fill="#1B314F"/>
  <path d="M63.3 10.9L58.7 20.6H56.6L52 10.9H54.2L57.6 18.2L61 10.9H63.3Z" fill="#1B314F"/>
  <path d="M65.4 10.9H67.6V20.6H65.4V10.9Z" fill="#1B314F"/>
  <path d="M80.2 10.9V20.6H78.5L73 14.6V20.6H70.9V10.9H72.6L78.1 17V10.9H80.2Z" fill="#1B314F"/>
  <path d="M85.4 12.9V14.9H89.6V16.9H85.4V18.7H90.1V20.7H83.2V10.9H90.1V12.9H85.4Z" fill="#1B314F"/>
</svg>
