<svg xmlns="http://www.w3.org/2000/svg" viewBox="0 0 28 20">
  <rect width="28" height="20" rx="2" fill="#016fd0"/>
  <path d="M14.18 9.333h1.147v3.332H14.18v-3.332zm-1.13 3.332H9.333V5.333h3.714v1.296h-2.311v.963h2.26v1.258h-2.26v1.148h2.313v1.333zm5.333-6.443l.837 1.925.804-1.925h1.632v3.332h-1.036V7.415l-1.037 2.14h-.722l-1.037-2.14v2.14h-1.037V6.222h1.596zm-8.333 0v3.332H8.95v-2.38L7.746 9.554H7.2L6 7.192v2.362H5V6.222h1.556L7.472 8.3l.907-2.078h1.671zm13.092 6.222v1.408H22.6v-1.075h-3.02v1.075h-1.151v-1.408h.42a.771.771 0 00.276-.048.453.453 0 00.207-.176c.05-.081.093-.189.128-.323.035-.133.057-.3.066-.5.01-.199.014-.44.014-.724v-.308h3.093v2.08h.457zm-1.036-.673v-1.407h-1.207v.113c0 .19-.003.36-.01.51a2.419 2.419 0 01-.04.393.966.966 0 01-.108.28.586.586 0 01-.204.19 1.01 1.01 0 01-.33.107v-.186h1.9zm-8.498.673v-2.08h3.123v-1.252H9.333v3.332h4.174zm.457-.673v-.735h-2.194v.735h2.194z" fill="#fff"/>
</svg>
