<svg width="171" height="32" viewBox="0 0 171 32" fill="none" xmlns="http://www.w3.org/2000/svg">
  <path d="M15.9 4L11.3 8.6L8.1 5.4L15.9 -2.4e-07L23.7 7.8L20.5 11L15.9 4Z" fill="#F3BA2F"/>
  <path d="M15.9 28L20.5 23.4L23.7 26.6L15.9 34.4L8.1 26.6L11.3 23.4L15.9 28Z" fill="#F3BA2F"/>
  <path d="M4 16L8.6 11.4L11.8 14.6L4 22.4L-3.8e-07 18.4L-2.9e-07 13.6L4 16Z" fill="#F3BA2F"/>
  <path d="M27.8 16L23.2 20.6L20 17.4L27.8 9.6L31.8 13.6V18.4L27.8 16Z" fill="#F3BA2F"/>
  <path d="M15.9 12.1L19.9 16.1L15.9 20.1L11.9 16.1L15.9 12.1Z" fill="#F3BA2F"/>
  <path d="M43.5 16.8V21.7H41.5V10.3H46C46.9 10.3 47.7 10.5 48.4 10.9C49.1 11.3 49.5 11.9 49.8 12.5C50.1 13.2 50.2 13.9 50.2 14.7C50.2 15.9 49.8 16.9 48.9 17.7C48.1 18.5 46.9 18.9 45.5 18.9L43.5 16.8ZM43.5 12.2V16.8H46C46.7 16.8 47.2 16.6 47.6 16.2C48 15.8 48.1 15.3 48.1 14.7C48.1 14.1 47.9 13.5 47.6 13.1C47.2 12.7 46.7 12.5 46 12.5L43.5 12.2Z" fill="#F3BA2F"/>
  <path d="M53.9 13.9C54.5 13.1 55.2 12.7 56.1 12.7V14.8H55.5C54.5 14.8 53.9 15.3 53.9 16.4V21.7H51.9V12.9H53.9V13.9Z" fill="#F3BA2F"/>
  <path d="M62.8 19.8C62.1 21 60.9 21.9 59.2 21.9C58.3 21.9 57.5 21.7 56.8 21.3C56.2 20.9 55.7 20.3 55.4 19.6C55.1 18.9 54.9 18.1 54.9 17.2C54.9 16.3 55.1 15.5 55.4 14.8C55.7 14.1 56.2 13.5 56.8 13.1C57.4 12.7 58.2 12.5 59.1 12.5C60 12.5 60.7 12.7 61.4 13.1C62 13.5 62.5 14 62.8 14.7C63.1 15.4 63.3 16.1 63.3 17H57C57.1 17.8 57.3 18.4 57.7 18.8C58.1 19.2 58.5 19.4 59.1 19.4C59.9 19.4 60.5 19 60.8 18.1L62.8 19.8ZM57 15.7H61.3C61.2 15 61 14.5 60.7 14.2C60.3 13.9 59.8 13.7 59.2 13.7C58.6 13.7 58.1 13.9 57.7 14.2C57.3 14.5 57.1 15.1 57 15.7Z" fill="#F3BA2F"/>
  <path d="M71.9 12.9V21.7H70V20.5C69.4 21.4 68.5 21.9 67.2 21.9C66.4 21.9 65.7 21.7 65.1 21.3C64.5 20.9 64 20.3 63.7 19.6C63.4 18.9 63.2 18.1 63.2 17.2C63.2 16.3 63.4 15.5 63.7 14.8C64 14.1 64.5 13.5 65.1 13.1C65.7 12.7 66.4 12.5 67.2 12.5C68.4 12.5 69.3 13 69.9 13.9V12.9H71.9ZM67.9 19.7C68.7 19.7 69.3 19.4 69.7 18.9C70.1 18.4 70.4 17.7 70.4 16.9C70.4 16.1 70.2 15.5 69.7 15C69.3 14.5 68.7 14.2 67.9 14.2C67.1 14.2 66.5 14.5 66.1 15C65.7 15.5 65.4 16.2 65.4 17C65.4 17.8 65.6 18.4 66.1 18.9C66.5 19.5 67.1 19.7 67.9 19.7Z" fill="#F3BA2F"/>
  <path d="M82.8 12.9V21.7H80.8V20.4C80.2 21.3 79.3 21.8 78 21.8C77.2 21.8 76.5 21.6 75.9 21.2C75.3 20.8 74.8 20.2 74.5 19.5C74.2 18.8 74 18 74 17.1C74 16.2 74.2 15.4 74.5 14.7C74.8 14 75.3 13.4 75.9 13C76.5 12.6 77.2 12.4 78 12.4C79.2 12.4 80.1 12.9 80.7 13.8V12.8H82.8V12.9ZM78.7 19.7C79.5 19.7 80.1 19.4 80.5 18.9C80.9 18.4 81.2 17.7 81.2 16.9C81.2 16.1 81 15.5 80.5 15C80 14.5 79.4 14.2 78.6 14.2C77.8 14.2 77.2 14.5 76.8 15C76.4 15.5 76.1 16.2 76.1 17C76.1 17.8 76.3 18.4 76.8 18.9C77.2 19.5 77.9 19.7 78.7 19.7Z" fill="#F3BA2F"/>
  <path d="M87 15C87.1 14.6 87.2 14.2 87.5 13.9C87.7 13.6 88.1 13.4 88.5 13.1C88.9 12.9 89.4 12.7 89.9 12.6C90.4 12.5 91 12.4 91.6 12.4C92.1 12.4 92.7 12.5 93.2 12.6C93.8 12.7 94.2 12.9 94.6 13.2C95 13.5 95.3 13.8 95.5 14.3C95.7 14.7 95.8 15.3 95.8 15.9V21.7H93.8V20.4C93.5 20.9 93.1 21.3 92.6 21.6C92 21.9 91.4 22 90.6 22C90.1 22 89.6 21.9 89.1 21.7C88.7 21.5 88.3 21.3 88 20.9C87.7 20.5 87.6 20.1 87.6 19.5C87.6 18.8 87.8 18.2 88.3 17.8C88.8 17.4 89.5 17.1 90.3 16.9C91.1 16.7 92.1 16.6 93.1 16.6H93.8V16.1C93.8 15.5 93.6 15.1 93.3 14.8C93 14.5 92.5 14.4 91.7 14.4C91.1 14.4 90.6 14.5 90.1 14.7C89.6 14.9 89.3 15.2 89.1 15.7L87 15ZM93.8 18.1H93C92.3 18.1 91.8 18.1 91.3 18.2C90.8 18.3 90.4 18.4 90.2 18.7C89.9 18.9 89.8 19.2 89.8 19.6C89.8 19.9 89.9 20.2 90.2 20.4C90.5 20.6 90.9 20.7 91.4 20.7C91.8 20.7 92.2 20.6 92.5 20.4C92.8 20.2 93.1 20 93.3 19.7C93.5 19.4 93.6 19.1 93.6 18.7V18.1H93.8Z" fill="#F3BA2F"/>
  <path d="M105.3 16.4V21.7H103.3V16.4C103.3 15.7 103.2 15.2 102.9 14.9C102.6 14.6 102.2 14.5 101.6 14.5C100.9 14.5 100.4 14.7 100 15.1C99.6 15.5 99.4 16.1 99.4 16.8V21.7H97.4V12.9H99.4V14C99.7 13.6 100.1 13.3 100.6 13C101.1 12.8 101.6 12.6 102.2 12.6C102.8 12.6 103.3 12.7 103.8 13C104.3 13.3 104.6 13.6 104.8 14.1C105 14.6 105.1 15.2 105.1 15.9V16.4H105.3Z" fill="#F3BA2F"/>
  <path d="M115.1 12.9V21.7H113.1V20.4C112.5 21.3 111.6 21.8 110.3 21.8C109.5 21.8 108.8 21.6 108.2 21.2C107.6 20.8 107.1 20.2 106.8 19.5C106.5 18.8 106.3 18 106.3 17.1C106.3 16.2 106.5 15.4 106.8 14.7C107.1 14 107.6 13.4 108.2 13C108.8 12.6 109.5 12.4 110.3 12.4C111.5 12.4 112.4 12.9 113 13.8V12.8H115.1V12.9ZM111 19.7C111.8 19.7 112.4 19.4 112.8 18.9C113.2 18.4 113.5 17.7 113.5 16.9C113.5 16.1 113.3 15.5 112.8 15C112.3 14.5 111.7 14.2 110.9 14.2C110.1 14.2 109.5 14.5 109.1 15C108.7 15.5 108.4 16.2 108.4 17C108.4 17.8 108.6 18.4 109.1 18.9C109.5 19.5 110.2 19.7 111 19.7Z" fill="#F3BA2F"/>
  <path d="M122.9 15C123 14.6 123.1 14.2 123.4 13.9C123.6 13.6 124 13.4 124.4 13.1C124.8 12.9 125.3 12.7 125.8 12.6C126.3 12.5 126.9 12.4 127.5 12.4C128 12.4 128.6 12.5 129.1 12.6C129.7 12.7 130.1 12.9 130.5 13.2C130.9 13.5 131.2 13.8 131.4 14.3C131.6 14.7 131.7 15.3 131.7 15.9V21.7H129.7V20.4C129.4 20.9 129 21.3 128.5 21.6C127.9 21.9 127.3 22 126.5 22C126 22 125.5 21.9 125 21.7C124.6 21.5 124.2 21.3 123.9 20.9C123.6 20.5 123.5 20.1 123.5 19.5C123.5 18.8 123.7 18.2 124.2 17.8C124.7 17.4 125.4 17.1 126.2 16.9C127 16.7 128 16.6 129 16.6H129.7V16.1C129.7 15.5 129.5 15.1 129.2 14.8C128.9 14.5 128.4 14.4 127.6 14.4C127 14.4 126.5 14.5 126 14.7C125.5 14.9 125.2 15.2 125 15.7L122.9 15ZM129.7 18.1H128.9C128.2 18.1 127.7 18.1 127.2 18.2C126.7 18.3 126.3 18.4 126.1 18.7C125.8 18.9 125.7 19.2 125.7 19.6C125.7 19.9 125.8 20.2 126.1 20.4C126.4 20.6 126.8 20.7 127.3 20.7C127.7 20.7 128.1 20.6 128.4 20.4C128.7 20.2 129 20 129.2 19.7C129.4 19.4 129.5 19.1 129.5 18.7V18.1H129.7Z" fill="#F3BA2F"/>
</svg>
