<svg width="171" height="32" viewBox="0 0 171 32" fill="none" xmlns="http://www.w3.org/2000/svg">
  <path d="M31 16C31 24.3 24.3 31 16 31C7.7 31 1 24.3 1 16C1 7.7 7.7 1 16 1C24.3 1 31 7.7 31 16Z" stroke="#16B157" stroke-width="1.5"/>
  <path d="M15.9 6.5V25.5" stroke="#16B157" stroke-width="1.5"/>
  <path d="M25.4 16H6.4" stroke="#16B157" stroke-width="1.5"/>
  <path d="M13.2 10.7L15.9 6.5L18.6 10.7" stroke="#16B157" stroke-width="1.5"/>
  <path d="M13.2 21.3L15.9 25.5L18.6 21.3" stroke="#16B157" stroke-width="1.5"/>
  <path d="M20.7 13.3L25 16L20.7 18.7" stroke="#16B157" stroke-width="1.5"/>
  <path d="M11.1 13.3L6.8 16L11.1 18.7" stroke="#16B157" stroke-width="1.5"/>
  <path d="M42.6 21V13.3H49.8V14.9H44.4V16.4H49.2V18H44.4V19.5H49.9V21H42.6Z" fill="#16B157"/>
  <path d="M51.3 21V13.3H53.1V21H51.3Z" fill="#16B157"/>
  <path d="M57.6 21.1C56.6 21.1 55.8 20.8 55.2 20.3C54.6 19.8 54.3 19.1 54.3 18.3H56.3C56.3 18.6 56.5 18.9 56.7 19.1C57 19.3 57.3 19.4 57.7 19.4C58.1 19.4 58.4 19.3 58.6 19.2C58.8 19.1 58.9 18.9 58.9 18.7C58.9 18.5 58.8 18.3 58.6 18.2C58.4 18.1 58.1 18 57.5 17.8L56.8 17.6C56.2 17.5 55.7 17.2 55.3 16.9C54.9 16.6 54.7 16.1 54.7 15.5C54.7 14.9 55 14.4 55.5 14C56 13.6 56.7 13.4 57.6 13.4C58.5 13.4 59.2 13.6 59.7 14C60.2 14.4 60.5 15 60.5 15.7H58.5C58.5 15.5 58.4 15.3 58.2 15.1C58 14.9 57.7 14.9 57.4 14.9C57.1 14.9 56.8 15 56.7 15.1C56.5 15.2 56.4 15.4 56.4 15.6C56.4 15.8 56.5 15.9 56.7 16C56.9 16.1 57.2 16.2 57.7 16.4L58.4 16.5C59.1 16.7 59.5 16.9 59.9 17.2C60.3 17.5 60.5 18 60.5 18.5C60.5 19.2 60.2 19.7 59.7 20.1C59.2 20.8 58.5 21.1 57.6 21.1Z" fill="#16B157"/>
  <path d="M67.7 21L65.4 17.7L64.4 18.7V21H62.6V13.3H64.4V16.5L67.4 13.3H69.6L66.5 16.6L69.9 21H67.7Z" fill="#16B157"/>
  <path d="M75.9 21H74.2L70.9 13.3H72.9L75 18.6L77.1 13.3H79.1L75.9 21Z" fill="#16B157"/>
  <path d="M84.2 21V13.3H91.4V14.9H86V16.4H90.8V18H86V19.5H91.5V21H84.2Z" fill="#16B157"/>
  <path d="M92.9 21V13.3H96.2C97.3 13.3 98.2 13.6 98.8 14.2C99.4 14.8 99.7 15.5 99.7 16.5C99.7 17.5 99.4 18.2 98.8 18.8C98.2 19.4 97.3 19.7 96.2 19.7H94.7V21H92.9ZM94.7 18.1H96C96.5 18.1 96.8 18 97.1 17.7C97.3 17.4 97.5 17 97.5 16.5C97.5 16 97.4 15.6 97.1 15.3C96.8 15 96.5 14.9 96 14.9H94.7V18.1Z" fill="#16B157"/>
  <path d="M107.1 19.5V21H100.8V13.3H102.6V19.5H107.1Z" fill="#16B157"/>
</svg>
