<svg xmlns="http://www.w3.org/2000/svg" width="32" height="32" viewBox="0 0 32 32" fill="none">
  <path d="M16 32C24.8366 32 32 24.8366 32 16C32 7.16344 24.8366 0 16 0C7.16344 0 0 7.16344 0 16C0 24.8366 7.16344 32 16 32Z" fill="#F7931A"/>
  <path d="M22.5 13.75C22.875 11.75 21.375 10.625 19.375 9.875L20 7.25L18.375 6.875L17.75 9.375C17.375 9.25 16.875 9.25 16.5 9.125L17.125 6.625L15.5 6.25L14.875 8.875C14.5 8.75 14.25 8.75 14 8.625L11.5 8L11 9.75C11 9.75 12.25 10 12.25 10.125C13 10.25 13.125 10.75 13.125 11.125L12.375 14.125C12.5 14.125 12.5 14.125 12.625 14.125H12.375L11.375 18.125C11.25 18.375 11 18.625 10.5 18.5C10.5 18.625 9.375 18.25 9.375 18.25L8.5 20.125L10.875 20.75C11.25 20.875 11.5 20.875 11.875 21L11.25 23.625L12.875 24L13.5 21.375C13.875 21.5 14.25 21.5 14.625 21.625L14 24.25L15.625 24.625L16.25 22C19 22.5 21.125 22.375 22 19.75C22.75 17.625 22 16.375 20.5 15.5C21.625 15.25 22.375 14.5 22.5 13.75ZM18.5 19C18 20.625 15.5 19.75 14.5 19.5L15.375 16C16.375 16.25 19.125 17.25 18.5 19ZM19 13.75C18.5 15.25 16.5 14.5 15.625 14.25L16.375 11.125C17.25 11.375 19.625 12.125 19 13.75Z" fill="white"/>
</svg>
