<svg width="171" height="32" viewBox="0 0 171 32" fill="none" xmlns="http://www.w3.org/2000/svg">
  <path d="M35.3 14.4C34.1 14.4 33.2 15.3 33.2 16.5C33.2 17.7 34.1 18.6 35.3 18.6C36.5 18.6 37.4 17.7 37.4 16.5C37.4 15.3 36.5 14.4 35.3 14.4Z" fill="#2354E6"/>
  <path d="M19.4 11.5C18.2 11.5 17.3 12.4 17.3 13.6C17.3 14.8 18.2 15.7 19.4 15.7C20.6 15.7 21.5 14.8 21.5 13.6C21.5 12.4 20.6 11.5 19.4 11.5Z" fill="#2354E6"/>
  <path d="M19 0C8.5 0 0 8.5 0 19C0 29.5 8.5 38 19 38C29.5 38 38 29.5 38 19C38 8.5 29.5 0 19 0ZM27.9 27.3H23.4V25.7H22.9C21.9 26.9 20.4 27.7 18.3 27.7C14.9 27.7 12.4 25.2 12.4 21.7C12.4 18.2 14.9 15.7 18.3 15.7C20.1 15.7 21.5 16.3 22.5 17.3V14.7H27V27.3H27.9ZM19 6C21.1 6 22.9 7.8 22.9 10C22.9 12.1 21.1 13.9 19 13.9C16.9 13.9 15.1 12.1 15.1 10C15.1 7.8 16.9 6 19 6Z" fill="#2354E6"/>
  <path d="M18.3 20.3C17.2 20.3 16.6 21 16.6 21.8C16.6 22.6 17.3 23.2 18.3 23.2C19.3 23.2 20.1 22.5 20.1 21.7C20.1 20.9 19.4 20.3 18.3 20.3Z" fill="#2354E6"/>
  <path d="M48.8 10.8V17.6C48.8 20.1 50.1 21.3 52.3 21.3C54.5 21.3 55.8 20.1 55.8 17.6V10.8H58.5V17.6C58.5 21.8 56 23.8 52.3 23.8C48.6 23.8 46.1 21.8 46.1 17.6V10.8H48.8Z" fill="#2354E6"/>
  <path d="M70.3 10.8H73V23.5H70.4L63.5 15.6V23.5H60.8V10.8H63.4L70.3 18.7V10.8Z" fill="#2354E6"/>
  <path d="M84.8 21V23.5H75V10.8H84.5V13.3H77.7V15.9H83.7V18.3H77.7V21H84.8Z" fill="#2354E6"/>
  <path d="M100.7 23.5L98.4 20.1C97.8 20.2 97.2 20.3 96.5 20.3H93.9V23.5H91.2V10.8H96.5C100.2 10.8 102.8 12.7 102.8 15.5C102.8 17.2 101.9 18.5 100.6 19.3L103.5 23.5H100.7ZM96.4 17.8C98.4 17.8 100 17.1 100 15.5C100 13.9 98.4 13.2 96.4 13.2H93.9V17.8H96.4Z" fill="#2354E6"/>
  <path d="M115.5 23.5L113.4 19.9H109.1L107 23.5H104.1L111.2 10.6H111.5L118.6 23.5H115.5ZM111.3 14.3L109.9 17.5H112.6L111.3 14.3Z" fill="#2354E6"/>
  <path d="M126.3 13.3H121.9V10.8H133.3V13.3H128.9V23.5H126.2V13.3H126.3Z" fill="#2354E6"/>
  <path d="M143.5 10.8H146.2V23.5H143.5V10.8Z" fill="#2354E6"/>
  <path d="M157.6 13.4C155.4 13.4 154 15.1 154 17.2C154 19.3 155.4 21 157.6 21C159.8 21 161.2 19.3 161.2 17.2C161.2 15.1 159.8 13.4 157.6 13.4ZM157.6 23.8C153.8 23.8 151.1 21 151.1 17.2C151.1 13.4 153.8 10.6 157.6 10.6C161.4 10.6 164.1 13.4 164.1 17.2C164.1 21 161.4 23.8 157.6 23.8Z" fill="#2354E6"/>
  <path d="M170.8 17.5C170.2 17.5 169.7 17 169.7 16.4C169.7 15.8 170.2 15.3 170.8 15.3C171.4 15.3 171.9 15.8 171.9 16.4C171.9 17 171.4 17.5 170.8 17.5Z" fill="#2354E6"/>
</svg>
