<svg width="140" height="140" viewBox="0 0 140 140" fill="none" xmlns="http://www.w3.org/2000/svg">
  <g filter="url(#filter0_d)">
    <path d="M45 35H95V95H45V35Z" fill="#F3F3FB"/>
    <path d="M45 35H95V55H45V35Z" fill="#D9DAFF"/>
    <path d="M68 35H72V95H68V35Z" fill="#D9DAFF"/>
    <path d="M53 43C53 43 60 26 70 35C80 44 87 43 87 43" stroke="#A198FF" stroke-width="3" stroke-linecap="round"/>
    <path d="M53 43C53 43 60 60 70 51C80 42 87 43 87 43" stroke="#A198FF" stroke-width="3" stroke-linecap="round"/>
  </g>
  <circle cx="70" cy="40" r="2" fill="white"/>
  <circle cx="60" cy="40" r="1.5" fill="white"/>
  <circle cx="80" cy="40" r="1.5" fill="white"/>
  <circle cx="50" cy="40" r="1" fill="white"/>
  <circle cx="90" cy="40" r="1" fill="white"/>
  <circle cx="45" cy="40" r="0.5" fill="white"/>
  <circle cx="95" cy="40" r="0.5" fill="white"/>
  <defs>
    <filter id="filter0_d" x="35" y="29" width="70" height="76" filterUnits="userSpaceOnUse" color-interpolation-filters="sRGB">
      <feFlood flood-opacity="0" result="BackgroundImageFix"/>
      <feColorMatrix in="SourceAlpha" type="matrix" values="0 0 0 0 0 0 0 0 0 0 0 0 0 0 0 0 0 0 127 0"/>
      <feOffset dy="4"/>
      <feGaussianBlur stdDeviation="5"/>
      <feColorMatrix type="matrix" values="0 0 0 0 0.631373 0 0 0 0 0.596078 0 0 0 0 1 0 0 0 0.5 0"/>
      <feBlend mode="normal" in2="BackgroundImageFix" result="effect1_dropShadow"/>
      <feBlend mode="normal" in="SourceGraphic" in2="effect1_dropShadow" result="shape"/>
    </filter>
  </defs>
</svg>
