<svg width="171" height="32" viewBox="0 0 171 32" fill="none" xmlns="http://www.w3.org/2000/svg">
  <path d="M15 1C7.3 1 1 7.3 1 15C1 22.7 7.3 29 15 29C22.7 29 29 22.7 29 15C29 7.3 22.7 1 15 1Z" stroke="#008EED" stroke-width="1.5"/>
  <path d="M21.6 13.7L20.1 12.2L15 17.3L9.9 12.2L8.4 13.7L13.5 18.8L8.4 23.9L9.9 25.4L15 20.3L20.1 25.4L21.6 23.9L16.5 18.8L21.6 13.7Z" fill="#008EED"/>
  <path d="M21.6 6.1L20.1 4.6L15 9.7L9.9 4.6L8.4 6.1L13.5 11.2L8.4 16.3L9.9 17.8L15 12.7L20.1 17.8L21.6 16.3L16.5 11.2L21.6 6.1Z" fill="#008EED"/>
  <path d="M49.3 9.1H44V22.4H46.6V17.9H49.3C52.2 17.9 54.2 16.1 54.2 13.5C54.2 10.9 52.2 9.1 49.3 9.1ZM49.2 15.5H46.6V11.5H49.2C50.6 11.5 51.5 12.3 51.5 13.5C51.5 14.7 50.6 15.5 49.2 15.5Z" fill="#008EED"/>
  <path d="M67.8 22.4H70.4V14.4H67.8V22.4Z" fill="#008EED"/>
  <path d="M77.1 14.2C74.1 14.2 72 16.2 72 18.5C72 20.8 74.1 22.7 77.1 22.7C80.1 22.7 82.2 20.7 82.2 18.5C82.2 16.2 80.1 14.2 77.1 14.2ZM77.1 20.5C75.7 20.5 74.6 19.6 74.6 18.5C74.6 17.3 75.7 16.4 77.1 16.4C78.5 16.4 79.6 17.3 79.6 18.5C79.6 19.6 78.5 20.5 77.1 20.5Z" fill="#008EED"/>
  <path d="M91.5 14.4L89.3 19.7L87.1 14.4H84.2L88 22.4H90.7L94.5 14.4H91.5Z" fill="#008EED"/>
  <path d="M104.4 14.4V15.5C103.6 14.6 102.5 14.2 101.2 14.2C98.3 14.2 96.2 16.2 96.2 18.5C96.2 20.8 98.3 22.7 101.2 22.7C102.5 22.7 103.6 22.3 104.4 21.4V22.4H107V14.4H104.4ZM101.7 20.5C100.3 20.5 98.9 19.6 98.9 18.5C98.9 17.3 100.3 16.4 101.7 16.4C103.1 16.4 104.5 17.3 104.5 18.5C104.5 19.6 103.1 20.5 101.7 20.5Z" fill="#008EED"/>
  <path d="M62 12.7C62.9 12.7 63.6 12 63.6 11.1C63.6 10.2 62.9 9.5 62 9.5C61.1 9.5 60.4 10.2 60.4 11.1C60.4 12 61.1 12.7 62 12.7Z" fill="#008EED"/>
</svg>
