<svg width="140" height="140" viewBox="0 0 140 140" fill="none" xmlns="http://www.w3.org/2000/svg">
  <g filter="url(#filter0_d)">
    <path d="M95 70C95 84.3594 83.3594 96 69 96C54.6406 96 43 84.3594 43 70C43 55.6406 54.6406 44 69 44C83.3594 44 95 55.6406 95 70Z" fill="#FFA726"/>
    <path d="M85 62C85 67.5228 80.5228 72 75 72C69.4772 72 65 67.5228 65 62C65 56.4772 69.4772 52 75 52C80.5228 52 85 56.4772 85 62Z" fill="#FFD54F"/>
    <path d="M69 44C63.5 44 55 48 55 52.5C55 57 61 57 69 57C77 57 83 57 83 52.5C83 48 74.5 44 69 44Z" fill="#FFB74D"/>
    <path d="M75 60L77 65L82 66L78.5 70L79.5 75L75 72.5L70.5 75L71.5 70L68 66L73 65L75 60Z" fill="#FFF176"/>
    <rect x="67" y="35" width="4" height="12" fill="#8D6E63"/>
    <rect x="67" y="35" width="4" height="6" fill="#6D4C41"/>
  </g>
  <defs>
    <filter id="filter0_d" x="33" y="29" width="72" height="77" filterUnits="userSpaceOnUse" color-interpolation-filters="sRGB">
      <feFlood flood-opacity="0" result="BackgroundImageFix"/>
      <feColorMatrix in="SourceAlpha" type="matrix" values="0 0 0 0 0 0 0 0 0 0 0 0 0 0 0 0 0 0 127 0"/>
      <feOffset dy="4"/>
      <feGaussianBlur stdDeviation="5"/>
      <feColorMatrix type="matrix" values="0 0 0 0 1 0 0 0 0 0.654902 0 0 0 0 0.14902 0 0 0 0.5 0"/>
      <feBlend mode="normal" in2="BackgroundImageFix" result="effect1_dropShadow"/>
      <feBlend mode="normal" in="SourceGraphic" in2="effect1_dropShadow" result="shape"/>
    </filter>
  </defs>
</svg>
