<svg width="171" height="32" viewBox="0 0 171 32" fill="none" xmlns="http://www.w3.org/2000/svg">
  <path d="M53.2 10H48v1.9h1.8v8.2h2.1v-8.2h1.3V10z" fill="#001F54"/>
  <path d="M55.6 15.5c0 1.6 1.1 2.9 2.9 2.9 1.8 0 2.9-1.3 2.9-2.9 0-1.6-1.1-2.9-2.9-2.9-1.8 0-2.9 1.3-2.9 2.9zm2.9-1.2c0.7 0 1.1 0.5 1.1 1.2 0 0.7-0.4 1.2-1.1 1.2-0.7 0-1.1-0.5-1.1-1.2 0-0.7 0.4-1.2 1.1-1.2z" fill="#001F54"/>
  <path d="M67.3 15.5v-2.7h-1.8v2.5c0 0.8-0.4 1.3-1.1 1.3-0.6 0-1-0.5-1-1.3v-2.5h-1.8v2.7c0 1.7 1.2 2.8 2.8 2.8s2.9-1.1 2.9-2.8z" fill="#001F54"/>
  <path d="M74.7 18.1h-1.9v-0.7c-0.4 0.5-1.1 0.9-1.9 0.9-1.7 0-2.9-1.3-2.9-2.9 0-1.6 1.2-2.9 2.9-2.9 0.9 0 1.5 0.4 1.9 0.9v-0.7h1.9v5.4zm-3.8-3.8c0.7 0 1.1 0.5 1.1 1.2 0 0.7-0.5 1.2-1.1 1.2-0.7 0-1.1-0.5-1.1-1.2 0-0.7 0.4-1.2 1.1-1.2z" fill="#001F54"/>
  <path d="M75.6 18.1V10h1.8v8.1h-1.8z" fill="#001F54"/>
  <path d="M84.3 18.1h-1.9v-0.7c-0.3 0.5-1 0.9-1.9 0.9-1.3 0-2.4-0.8-2.4-2.5v-3.1h1.8v2.6c0 0.8 0.4 1.2 1 1.2 0.7 0 1.1-0.5 1.1-1.3v-2.5h1.8v5.4h0.5z" fill="#001F54"/>
  <path d="M90 13.5l-1.6 3.2h-0.4l-1.6-3.2v4.6h-1.8V10h1.9l1.7 3.4L90 10h1.9v8.1H90v-4.6z" fill="#001F54"/>
  <path d="M46.1 22.3c-0.4-0.4-0.9-0.6-1.5-0.6-1.2 0-2.2 1-2.2 2.2s1 2.2 2.2 2.2c0.6 0 1.1-0.2 1.5-0.6v0.5h1.3v-4.1h-1.3v0.4zm-1.3 2.6c-0.5 0-0.9-0.4-0.9-1s0.4-1 0.9-1 0.9 0.4 0.9 1-0.4 1-0.9 1z" fill="#001F54"/>
  <path d="M53.5 23.9c0-1.2-0.9-2.2-2.2-2.2s-2.2 1-2.2 2.2 0.9 2.2 2.2 2.2 2.2-1 2.2-2.2zm-3 0c0-0.5 0.4-1 0.9-1s0.9 0.4 0.9 1-0.4 1-0.9 1-0.9-0.4-0.9-1z" fill="#001F54"/>
  <path d="M59.2 25.9h-1.3v-0.5c-0.3 0.4-0.8 0.6-1.3 0.6-0.9 0-1.6-0.6-1.6-1.7v-2.1H56v1.7c0 0.5 0.2 0.8 0.7 0.8 0.5 0 0.7-0.3 0.7-0.9v-1.7h1.2v3.8h0.6z" fill="#001F54"/>
  <path d="M62.1 25.9v-5.5h1.2v5.5h-1.2z" fill="#001F54"/>
  <path d="M28.6 10.2L16.4 3.4c-0.4-0.2-0.8-0.2-1.2 0L3 10.2c-0.4 0.2-0.6 0.6-0.6 1.1v13.4c0 0.5 0.2 0.9 0.6 1.1l12.2 6.8c0.4 0.2 0.8 0.2 1.2 0l12.2-6.8c0.4-0.2 0.6-0.6 0.6-1.1V11.3c0.1-0.5-0.2-0.9-0.6-1.1z" fill="#001F54"/>
  <path d="M15.8 8.1L9.5 11.7v7.1l6.3 3.6 6.3-3.6v-7.1l-6.3-3.6zm4.6 9.7l-4.6 2.7-4.6-2.7v-5.3l4.6-2.7 4.6 2.7v5.3z" fill="white"/>
  <path d="M9.4 11.9l6.4 3.6 6.3-3.6-6.4-3.7-6.3 3.7zm6.4 9.1l-6.4-3.7V11l6.4 3.6v6.4zm6.3-3.7l-6.3 3.7v-6.4l6.3-3.6v6.3z" fill="#001F54"/>
  <path d="M16.2 24.8l6.4-3.7v-3.5l-6.4 3.6v3.6z" fill="#001F54"/>
  <path d="M17.9 9.6l3-1.7c0.1-0.1 0.1-0.2 0-0.3l-3-1.7c-0.1-0.1-0.2-0.1-0.3 0l-3 1.7c-0.1 0.1-0.1 0.2 0 0.3l3 1.7c0.1 0.1 0.2 0.1 0.3 0z" fill="white"/>
  <path d="M23.3 12.6l3-1.7c0.1-0.1 0.1-0.2 0-0.3l-3-1.7c-0.1-0.1-0.2-0.1-0.3 0l-3 1.7c-0.1 0.1-0.1 0.2 0 0.3l3 1.7c0.1 0.1 0.2 0.1 0.3 0z" fill="white"/>
</svg>
