<svg width="171" height="32" viewBox="0 0 171 32" fill="none" xmlns="http://www.w3.org/2000/svg">
  <path d="M40.6 6H29.4C28.1 6 27 7.1 27 8.4V23.6C27 24.9 28.1 26 29.4 26H40.6C41.9 26 43 24.9 43 23.6V8.4C43 7.1 41.9 6 40.6 6Z" fill="#121212"/>
  <path d="M56.2 6H44.9C43.7 6 42.6 7.1 42.6 8.3V23.7C42.6 24.9 43.7 26 44.9 26H56.2C57.4 26 58.5 24.9 58.5 23.7V8.3C58.5 7.1 57.4 6 56.2 6ZM52 22H49.1C48.5 22 48 21.5 48 20.9V11.1C48 10.5 48.5 10 49.1 10H52C52.6 10 53.1 10.5 53.1 11.1V20.9C53.1 21.5 52.6 22 52 22Z" fill="#121212"/>
  <path d="M67.7 6H65.7C64.5 6 63.4 7.1 63.4 8.3V23.7C63.4 24.9 64.5 26 65.7 26H67.7C68.9 26 70 24.9 70 23.7V8.3C70 7.1 68.9 6 67.7 6Z" fill="#121212"/>
</svg>
