<svg xmlns="http://www.w3.org/2000/svg" viewBox="0 0 28 20">
  <rect width="28" height="20" rx="2" fill="#fff"/>
  <path d="M20.924 6.625c0.16-1.103-0.843-1.103-1.535-1.103h-0.216l-0.263 1.64c0.016-0.103 0.13-0.18 0.257-0.18h0.097c0.464 0 0.902 0 1.127-0.263 0.137-0.16 0.18-0.394 0.13-0.7zM20.127 7.37h-0.141c-0.107 0-0.198 0.077-0.214 0.183l-0.16 1.047-0.1 0.633c0.006 0.037 0.019 0.07 0.047 0.097 0.027 0.027 0.06 0.04 0.1 0.04h0.08c0.327 0 0.644 0 0.814-0.187 0.173-0.187 0.22-0.467 0.167-0.773-0.057-0.347-0.314-0.65-0.704-0.65z" fill="#003087"/>
  <path d="M8.217 5.25H5.26c-0.207 0-0.383 0.15-0.414 0.357l-1.23 7.754c-0.024 0.153 0.093 0.293 0.249 0.293h1.433c0.207 0 0.383-0.15 0.415-0.356l0.331-2.107c0.032-0.205 0.208-0.356 0.414-0.356h0.937c1.99 0 3.139-0.96 3.439-2.86 0.135-0.83 0.005-1.48-0.383-1.94-0.424-0.505-1.177-0.771-2.16-0.771z" fill="#003087"/>
  <path d="M13.565 8.506h-1.433c-0.123 0-0.229 0.09-0.249 0.213l-0.064 0.402-0.1-0.146c-0.311-0.452-1.004-0.603-1.695-0.603-1.584 0-2.938 1.199-3.202 2.881-0.137 0.839 0.058 1.64 0.534 2.2 0.438 0.516 1.064 0.73 1.809 0.73 1.28 0 1.99-0.822 1.99-0.822l-0.064 0.399c-0.024 0.153 0.093 0.293 0.249 0.293h1.29c0.206 0 0.382-0.15 0.414-0.356l0.78-4.936c0.024-0.153-0.092-0.292-0.248-0.292z" fill="#003087"/>
  <path d="M22.3 8.506h-1.434c-0.123 0-0.228 0.09-0.248 0.213l-0.064 0.402-0.1-0.146c-0.311-0.452-1.004-0.603-1.695-0.603-1.584 0-2.938 1.199-3.202 2.881-0.137 0.839 0.058 1.64 0.534 2.2 0.438 0.516 1.064 0.73 1.809 0.73 1.28 0 1.99-0.822 1.99-0.822l-0.064 0.399c-0.024 0.153 0.093 0.293 0.249 0.293h1.29c0.206 0 0.383-0.15 0.414-0.356l0.78-4.936c0.024-0.153-0.092-0.292-0.248-0.292z" fill="#009cde"/>
  <path d="M17.852 10.776c-0.132 0.782-0.754 1.308-1.549 1.308-0.398 0-0.715-0.128-0.918-0.37-0.202-0.241-0.278-0.585-0.214-0.967 0.123-0.776 0.755-1.32 1.535-1.32 0.389 0 0.704 0.13 0.913 0.374 0.211 0.246 0.293 0.592 0.233 0.975z" fill="#009cde"/>
  <path d="M9.117 10.776c-0.132 0.782-0.754 1.308-1.549 1.308-0.398 0-0.715-0.128-0.918-0.37-0.202-0.241-0.278-0.585-0.214-0.967 0.123-0.776 0.755-1.32 1.535-1.32 0.39 0 0.704 0.13 0.913 0.374 0.211 0.246 0.293 0.592 0.233 0.975z" fill="#003087"/>
</svg>
