<svg xmlns="http://www.w3.org/2000/svg" viewBox="0 0 28 20">
  <rect width="28" height="20" rx="2" fill="#fff"/>
  <path d="M11.5 13.5h-2l1.25-7h2z" fill="#00579F"/>
  <path d="M19 6.5l-2 7h-1.75l-.825-4.2a.7.7 0 00-.575-.55 9 9 0 00-1.85-.25l.025-.15h3.15a.75.75 0 01.75.65l.675 3.6 1.675-4.25h1.775v.15zm-5.75 4.5c.025-1-.875-1.75-2.5-1.75-1.025 0-1.725.2-2.25.35l.275-1h1.3c.275 0 .525-.15.575-.425l.15-.8-2.75.025c.025-.075-1.1 6.1-1.1 6.1h2c.675-3.275.8-3.5.8-3.5s.675-.125 1.375-.125c.575 0 .925.2.9.5-.025.525-1.5 3.125-1.5 3.125h2s1.475-2.75 1.725-4z" fill="#00579F"/>
</svg>
