<svg width="20" height="20" viewBox="0 0 20 20" fill="none" xmlns="http://www.w3.org/2000/svg">
<mask id="mask0_74_161" style="mask-type:alpha" maskUnits="userSpaceOnUse" x="0" y="0" width="20" height="20">
<rect width="20" height="20" fill="#D9D9D9"/>
</mask>
<g mask="url(#mask0_74_161)">
<path d="M9.16646 14.2083V5.99996C8.59702 5.66663 7.99285 5.41663 7.35396 5.24996C6.71508 5.08329 6.06924 4.99996 5.41646 4.99996C4.91646 4.99996 4.41994 5.04857 3.92688 5.14579C3.43382 5.24302 2.95813 5.38885 2.4998 5.58329V13.8333C2.98591 13.6666 3.46855 13.5416 3.94771 13.4583C4.42688 13.375 4.91646 13.3333 5.41646 13.3333C6.06924 13.3333 6.70466 13.4062 7.32271 13.552C7.94077 13.6979 8.55535 13.9166 9.16646 14.2083ZM9.9998 16.6666C9.33313 16.1388 8.61091 15.7291 7.83313 15.4375C7.05535 15.1458 6.2498 15 5.41646 15C4.83313 15 4.26021 15.0763 3.69771 15.2291C3.13521 15.3819 2.59702 15.5972 2.08313 15.875C1.79146 16.0277 1.51021 16.0208 1.23938 15.8541C0.968547 15.6875 0.83313 15.4444 0.83313 15.125V5.08329C0.83313 4.93051 0.871324 4.78468 0.947713 4.64579C1.0241 4.5069 1.13869 4.40274 1.29146 4.33329C1.93035 3.99996 2.59702 3.74996 3.29146 3.58329C3.98591 3.41663 4.69424 3.33329 5.41646 3.33329C6.44424 3.33329 7.31924 3.45135 8.04146 3.68746C8.76369 3.92357 9.54146 4.28468 10.3748 4.77079C10.5276 4.85413 10.6422 4.95135 10.7185 5.06246C10.7949 5.17357 10.8331 5.3194 10.8331 5.49996V14.2083C11.4442 13.9166 12.0588 13.6979 12.6769 13.552C13.2949 13.4062 13.9304 13.3333 14.5831 13.3333C15.0831 13.3333 15.5727 13.375 16.0519 13.4583C16.531 13.5416 17.0137 13.6666 17.4998 13.8333V3.81246C17.7081 3.8819 17.913 3.95829 18.1144 4.04163C18.3158 4.12496 18.5137 4.22218 18.7081 4.33329C18.8609 4.40274 18.9755 4.5069 19.0519 4.64579C19.1283 4.78468 19.1665 4.93051 19.1665 5.08329V15.125C19.1665 15.4444 19.031 15.6875 18.7602 15.8541C18.4894 16.0208 18.2081 16.0277 17.9165 15.875C17.4026 15.5972 16.8644 15.3819 16.3019 15.2291C15.7394 15.0763 15.1665 15 14.5831 15C13.7498 15 12.9442 15.1458 12.1665 15.4375C11.3887 15.7291 10.6665 16.1388 9.9998 16.6666ZM12.9165 11.6666V2.49996L15.4165 1.66663V10.8333L12.9165 11.6666Z" fill="#4A5565"/>
</g>
</svg>
