<svg width="18" height="13" viewBox="0 0 18 13" fill="none" xmlns="http://www.w3.org/2000/svg">
<path d="M9 12.5C7.33333 12.5 5.90625 11.9097 4.71875 10.7292C3.53125 9.54861 2.95833 8.09722 3 6.375L1.8125 7.5625L0.75 6.5L3.75 3.5L6.75 6.5L5.6875 7.5625L4.5 6.375C4.47222 7.68056 4.90278 8.77778 5.79167 9.66667C6.68056 10.5556 7.75 11 9 11C9.30556 11 9.59722 10.9722 9.875 10.9167C10.1528 10.8611 10.4236 10.7778 10.6875 10.6667L11.7917 11.7708C11.375 11.9931 10.934 12.1701 10.4688 12.3021C10.0035 12.434 9.51389 12.5 9 12.5ZM14.25 9.5L11.25 6.5L12.3125 5.4375L13.5 6.625C13.5278 5.31944 13.0972 4.22222 12.2083 3.33333C11.3194 2.44444 10.25 2 9 2C8.70833 2 8.42014 2.02778 8.13542 2.08333C7.85069 2.13889 7.57639 2.22222 7.3125 2.33333L6.20833 1.22917C6.625 1.00694 7.06944 0.829861 7.54167 0.697917C8.01389 0.565972 8.5 0.5 9 0.5C10.6806 0.5 12.1111 1.09028 13.2917 2.27083C14.4722 3.45139 15.0417 4.90278 15 6.625L16.1875 5.4375L17.25 6.5L14.25 9.5Z" fill="#62748E"/>
</svg>
