<svg width="14" height="18" viewBox="0 0 14 18" fill="none" xmlns="http://www.w3.org/2000/svg">
<path d="M7.00016 10.6666C7.4585 10.6666 7.85086 10.5034 8.17725 10.177C8.50364 9.85065 8.66683 9.45829 8.66683 8.99996C8.66683 8.54163 8.50364 8.14927 8.17725 7.82288C7.85086 7.49649 7.4585 7.33329 7.00016 7.33329C6.54183 7.33329 6.14947 7.49649 5.82308 7.82288C5.49669 8.14927 5.3335 8.54163 5.3335 8.99996C5.3335 9.45829 5.49669 9.85065 5.82308 10.177C6.14947 10.5034 6.54183 10.6666 7.00016 10.6666ZM3.66683 14H10.3335V13.5208C10.3335 13.1875 10.2432 12.8819 10.0627 12.6041C9.88211 12.3263 9.63211 12.118 9.31266 11.9791C8.95155 11.8263 8.58002 11.7083 8.19808 11.625C7.81613 11.5416 7.41683 11.5 7.00016 11.5C6.5835 11.5 6.18419 11.5416 5.80225 11.625C5.4203 11.7083 5.04877 11.8263 4.68766 11.9791C4.36822 12.118 4.11822 12.3263 3.93766 12.6041C3.75711 12.8819 3.66683 13.1875 3.66683 13.5208V14ZM12.0002 17.3333H2.00016C1.54183 17.3333 1.14947 17.1701 0.823079 16.8437C0.496691 16.5173 0.333496 16.125 0.333496 15.6666V2.33329C0.333496 1.87496 0.496691 1.4826 0.823079 1.15621C1.14947 0.82982 1.54183 0.666626 2.00016 0.666626H8.66683L13.6668 5.66663V15.6666C13.6668 16.125 13.5036 16.5173 13.1772 16.8437C12.8509 17.1701 12.4585 17.3333 12.0002 17.3333ZM12.0002 15.6666V6.37496L7.9585 2.33329H2.00016V15.6666H12.0002Z" fill="#125FF0"/>
</svg>
