<svg width="14" height="14" viewBox="0 0 14 14" fill="none" xmlns="http://www.w3.org/2000/svg">
<mask id="mask0_84_1934" style="mask-type:alpha" maskUnits="userSpaceOnUse" x="0" y="0" width="14" height="14">
<rect width="14" height="14" fill="#D9D9D9"/>
</mask>
<g mask="url(#mask0_84_1934)">
<path d="M11.0834 11.0833H4.66675C4.34591 11.0833 4.07126 10.9691 3.84279 10.7406C3.61432 10.5121 3.50008 10.2375 3.50008 9.91665V1.74998C3.50008 1.42915 3.61432 1.15449 3.84279 0.926021C4.07126 0.697549 4.34591 0.583313 4.66675 0.583313H8.75008L12.2501 4.08331V9.91665C12.2501 10.2375 12.1358 10.5121 11.9074 10.7406C11.6789 10.9691 11.4042 11.0833 11.0834 11.0833ZM8.16675 4.66665V1.74998H4.66675V9.91665H11.0834V4.66665H8.16675ZM2.33341 13.4166C2.01258 13.4166 1.73793 13.3024 1.50946 13.0739C1.28098 12.8455 1.16675 12.5708 1.16675 12.25V4.08331H2.33341V12.25H8.75008V13.4166H2.33341Z" fill="#90A1B9"/>
</g>
</svg>
