<svg width="16" height="16" viewBox="0 0 16 16" fill="none" xmlns="http://www.w3.org/2000/svg">
<mask id="mask0_65_742" style="mask-type:alpha" maskUnits="userSpaceOnUse" x="0" y="0" width="16" height="16">
<rect width="16" height="16" fill="#D9D9D9"/>
</mask>
<g mask="url(#mask0_65_742)">
<path d="M7.99997 14.6667C6.27775 14.6667 4.7833 14.0945 3.51664 12.95C2.24997 11.8056 1.5333 10.3778 1.36664 8.66671H2.71664C2.8833 10.0112 3.46942 11.125 4.47497 12.0084C5.48053 12.8917 6.65553 13.3334 7.99997 13.3334C9.48886 13.3334 10.75 12.8167 11.7833 11.7834C12.8166 10.75 13.3333 9.48893 13.3333 8.00004C13.3333 6.51115 12.8166 5.25004 11.7833 4.21671C10.75 3.18337 9.48886 2.66671 7.99997 2.66671C7.04442 2.66671 6.1583 2.90282 5.34164 3.37504C4.52497 3.84726 3.87775 4.50004 3.39997 5.33337H5.3333V6.66671H1.46664C1.78886 5.11115 2.56108 3.83337 3.7833 2.83337C5.00553 1.83337 6.41108 1.33337 7.99997 1.33337C8.92219 1.33337 9.78886 1.50837 10.6 1.85837C11.4111 2.20837 12.1166 2.68337 12.7166 3.28337C13.3166 3.88337 13.7916 4.58893 14.1416 5.40004C14.4916 6.21115 14.6666 7.07782 14.6666 8.00004C14.6666 8.92226 14.4916 9.78893 14.1416 10.6C13.7916 11.4112 13.3166 12.1167 12.7166 12.7167C12.1166 13.3167 11.4111 13.7917 10.6 14.1417C9.78886 14.4917 8.92219 14.6667 7.99997 14.6667ZM9.86664 10.8L7.3333 8.26671V4.66671H8.66664V7.73337L10.8 9.86671L9.86664 10.8Z" fill="#90A1B9"/>
</g>
</svg>
